<svg width="310" height="310" xmlns="http://www.w3.org/2000/svg">
  <g fill="none" fill-rule="evenodd">
    <path d="M163.406895 179.8019375h-13.623123v-49.61259375h13.617314v8.10262495c3.129855-6.08065887 9.519447-9.7735382 16.347748-9.4482187 13.390746 0 18.270671 9.009375 18.270671 20.0269688v30.9312187h-13.617314v-28.237125c0-7.6463438-3.064477-12.0376875-9.75985-12.0376875-6.921941 0-11.235446 5.3969062-11.235446 13.7233125v26.5515zm65.966127 1.3543125c-14.40673-.1602028-25.96818-11.9525171-25.851058-26.3672636.117122-14.4147465 11.86866-26.01743903 26.27609-25.94327491 14.407429.07416411 26.039021 11.79722441 26.007894 26.21241351 0 15.4118437-10.892689 26.098125-26.432926 26.098125zm0-10.2387188c8.397537 0 12.711042-6.521625 12.711042-15.8594062 0-9.4569375-4.313505-15.984375-12.711042-15.984375-8.284253 0-12.594854 6.521625-12.594854 15.984375-.005809 9.334875 4.304791 15.8565 12.594854 15.8565v.0029062zM75.1790158 130.18934375H88.784711v49.61259375H75.1673969v-8.102625c-3.1247248 6.0781063-9.5062365 9.7736589-16.3303199 9.4569375-13.39074616 0-18.270671-9.009375-18.270671-20.0240625v-30.94284375h13.6173141V158.429375c0 7.6463438 3.0644766 12.0376875 9.7598497 12.0376875 6.921941 0 11.235446-5.4027187 11.235446-13.729125v-26.54859375zm56.7087932 35.50275005c-2.4570478 3.6322219-6.696346 5.6371493-11.0611629 5.23125-7.1853349.244361-13.242808-5.3135148-13.6202188-12.496875H144.77023v-4.836c0-13.4995313-8.3975377-24.74962505-24.7394764-24.74962505-7.1072113-.1308985-13.9526986 2.68188613-18.9165714 7.77274715-4.9638729 5.090861-7.6050384 12.0074211-7.2985011 19.1129716 0 15.635625 11.1221621 25.423875 26.5549244 25.423875 9.7888968 0 17.1378313-3.8042812 21.2044355-10.5060937l-9.687232-4.95225zm-11.9703394-26.9525626c3.0394557-.0944674 5.9871994 1.0487373 8.1689763 3.1681223 2.1817768 2.119385 3.4109349 5.0336359 3.4063345 8.076159h-24.0597852c1.2490284-6.1786875 4.9961135-11.241375 12.4844744-11.241375v-.0029063zm143.2838884 42.140625c-3.757601.0177-6.818501-3.0148918-6.837704-6.7744687v-.290625c.008454-1.8059564.733607-3.5345831 2.01593-4.8055918 1.282323-1.2710087 3.01677-1.9802818 4.821774-1.9717832 1.806508-.0084963 3.542272.7019721 4.824846 1.9748648 1.282573 1.2728926 2.00671 3.0037586 2.012858 4.811229v.290625c-.020801 3.7584395-3.081231 6.7892656-6.837704 6.7715625v-.0058126z" fill="#000" fill-rule="nonzero"/>
    <path d="M0 0h310v310H0z"/>
  </g>
</svg>